<svg xmlns="http://www.w3.org/2000/svg" width="28" height="28" viewBox="0 0 28 28"><path fill="#FBB03B" d="M1.624 4.985l3.358-3.36 21.394 21.39-3.358 3.36z"/><path fill="#fff" d="M23.016 27.082L.918 4.982 4.983.92 27.08 23.016l-4.064 4.066zM2.333 4.982L23.017 25.67l2.65-2.652L4.985 2.332l-2.65 2.65z"/><path fill="#FBB03B" d="M4.984 26.374l-3.36-3.36 21.39-21.39 3.36 3.36z"/><path fill="#fff" d="M4.985 27.082L.92 23.015 23.014.918l4.066 4.066L4.986 27.082zm-2.652-4.067l2.652 2.653L25.667 4.984l-2.652-2.652L2.333 23.015z"/><path fill="#FBB03B" d="M15.9 13.248l9.767 9.767-2.652 2.652-9.767-9.768z"/></svg>